<?xml version="1.0" standalone="no"?>
<!DOCTYPE svg PUBLIC "-//W3C//DTD SVG 20010904//EN"
 "http://www.w3.org/TR/2001/REC-SVG-20010904/DTD/svg10.dtd">
<svg version="1.0" xmlns="http://www.w3.org/2000/svg"
 width="1084.000000pt" height="1084.000000pt" viewBox="0 0 1084.000000 1084.000000"
 preserveAspectRatio="xMidYMid meet">
<metadata>
Created by potrace 1.11, written by Peter Selinger 2001-2013
</metadata>
<g transform="translate(0.000000,1084.000000) scale(0.100000,-0.100000)"
fill="#000000" stroke="none">
<path d="M1185 6868 c-3 -7 -4 -668 -3 -1468 l3 -1455 298 -3 297 -2 0 595 0
595 470 0 470 0 0 265 0 265 -470 0 -470 0 0 345 0 345 485 0 485 0 -2 263 -3
262 -778 3 c-617 2 -779 0 -782 -10z"/>
<path d="M8370 6360 l0 -510 -67 70 c-117 124 -267 206 -448 245 -110 24 -322
24 -435 1 -390 -82 -682 -342 -809 -722 -41 -123 -61 -255 -61 -409 0 -359
117 -647 354 -873 146 -138 306 -221 508 -263 89 -18 127 -20 273 -16 188 5
252 18 373 73 125 57 214 129 296 237 l36 49 0 -151 0 -151 250 0 250 0 0
1465 0 1465 -260 0 -260 0 0 -510z m-502 -675 c430 -87 654 -551 460 -954 -32
-68 -57 -101 -122 -166 -141 -140 -306 -202 -511 -192 -166 8 -297 59 -408
158 -145 129 -227 338 -214 544 25 412 389 691 795 610z"/>
<path d="M3062 6103 c3 -10 160 -501 349 -1090 l344 -1073 246 0 246 0 153
538 c83 295 175 619 203 719 29 101 54 183 57 183 3 0 99 -324 214 -720 l209
-720 243 0 c222 0 244 2 252 18 10 19 692 2143 692 2155 0 4 -122 6 -271 5
l-272 -3 -84 -300 c-124 -446 -292 -1040 -315 -1120 l-20 -70 -199 675 c-110
371 -204 692 -209 713 l-11 37 -223 0 -223 0 -50 -172 c-28 -95 -119 -413
-204 -705 -84 -293 -156 -533 -159 -533 -3 0 -99 333 -215 740 l-210 740 -274
0 c-255 0 -273 -1 -269 -17z"/>
<path d="M9600 5825 l0 -295 275 0 275 0 0 295 0 295 -275 0 -275 0 0 -295z"/>
<path d="M9600 4235 l0 -295 275 0 275 0 0 295 0 295 -275 0 -275 0 0 -295z"/>
</g>
</svg>
